<svg width="46" height="47" fill="none" xmlns="http://www.w3.org/2000/svg"><path fill-rule="evenodd" clip-rule="evenodd" d="M12.881 10.317l.013-.015zm-1.85 1.892L2.5 3.679V7A.833.833 0 11.832 7V1.667a.833.833 0 01.834-.834H7A.833.833 0 117 2.5H3.678l8.525 8.524.416.41.346-.434A12.809 12.809 0 0123 6.167a12.81 12.81 0 0110.038 4.835l.347.436 3.146-3.126-2.22-2.219A.832.832 0 0134.9 4.67a.834.834 0 01.59.244l2.223 2.223L42.38 2.5H39a.833.833 0 110-1.667h5.334a.833.833 0 01.833.834V7A.833.833 0 1143.5 7V3.737l-4.608 4.579 2.255 2.255a.833.833 0 01-1.179 1.178L37.71 9.491l-3.417 3.395.165.325A12.777 12.777 0 0135.834 19c0 6.654-5.065 12.126-11.55 12.77l-.45.045v8.925H27a.833.833 0 010 1.667h-3.166v3.26a.833.833 0 11-1.667 0v-3.26H19a.833.833 0 010-1.667h3.167v-8.925l-.45-.045c-6.485-.644-11.55-6.116-11.55-12.77 0-2.126.517-4.13 1.43-5.895l.123-.262c-.22-.247-.468-.405-.69-.634zM23 7.833a11.166 11.166 0 100 22.333 11.166 11.166 0 000-22.333z" fill="#BBA56F"/></svg>