<svg width="47" height="47" fill="none" xmlns="http://www.w3.org/2000/svg"><path d="M46.333 1.95a.975.975 0 00-.95-.95c-18.7-1.1-33.625 4.475-39.95 14.9-4.325 7.15-4.1 15.625.65 23.925L.633 45.3a.975.975 0 000 1.4.974.974 0 001.4 0l5.475-5.45c4.35 2.475 8.75 3.725 12.975 3.725a20.973 20.973 0 0010.95-3.075c10.425-6.325 16-21.25 14.9-39.95zm-15.95 38.225c-6.35 3.85-13.925 3.7-21.425-.4L32.033 16.7a1 1 0 10-1.4-1.4L7.558 38.375c-4.1-7.5-4.25-15.075-.4-21.425 5.825-9.625 19.7-14.825 37.225-14 .825 17.525-4.375 31.4-14 37.225z" fill="#BBA56F"/></svg>