<svg width="38" height="56" fill="none" xmlns="http://www.w3.org/2000/svg"><mask id="a" fill="#fff"><path d="M33.333 9.6c2.667 3.467 4 6.667 4 10.4 0 4.533-1.866 8.8-6.4 13.6-5.066 5.333-9.6 11.2-9.6 17.067 0 1.066.267 2.133.534 3.466 0 .267 0 .534-.267.8-.267.267-.533 0-.533-.266-2.667-3.467-4-6.667-4-10.4 0-4.534 1.866-8.8 6.4-13.6 5.066-5.334 9.6-11.2 9.6-17.067 0-1.067-.267-2.133-.534-3.467 0-.266 0-.533.267-.8.267 0 .267 0 .533.267zm-20.8-8C14.4 4 15.2 6.667 15.2 9.067c0 3.466-1.6 6.666-4.8 10.133-3.733 4-7.2 8.533-7.2 12.8 0 .8.267 1.867.533 2.4 0 .267 0 .267-.266.533-.267.267-.534 0-.534 0C.8 32.267 0 29.6 0 27.2c0-3.467 1.6-6.667 4.8-10.133 3.733-4 7.2-8.534 7.2-12.8 0-.8-.267-1.867-.533-2.4v-.534c.533 0 .8 0 1.066.267zM13.6 22.4c5.067-5.333 9.6-11.2 9.6-17.067 0-1.066-.267-2.133-.533-3.466 0-.267 0-.534.266-.8.267-.267.534 0 .534.266 2.666 3.467 4 6.667 4 10.4 0 4.534-1.867 8.8-6.4 13.6-5.067 5.334-9.6 11.2-9.6 17.067 0 1.067.266 2.133.533 3.467 0 .266 0 .533-.267.8-.266.266-.533 0-.533-.267-2.667-3.467-4-6.667-4-10.4 0-4.533 1.867-8.8 6.4-13.6z"/></mask><path d="M30.933 33.6l.725.689.002-.002-.727-.687zm-9.066 20.533h1v-.099l-.02-.097-.98.196zm-.8.534h1v-.34l-.208-.27-.792.61zm2.4-24l-.725-.69-.002.003.727.687zm9.066-20.534h-1v.1l.02.096.98-.196zm.267-.8v-1h-.414l-.293.293.707.707zM10.4 19.2l.731.682.004-.004-.735-.678zM3.733 34.4h1v-.236l-.105-.211-.895.447zm-.8.533l-.78.625.034.043.04.04.706-.708zM4.8 17.067l-.731-.683-.004.004.735.679zm6.667-15.2h-1v.236l.105.21.895-.446zm0-.534v-1h-1v1h1zm11.2.534h-1v.099l.02.097.98-.196zm.8-.534h-1v.34l.207.27.793-.61zm-2.4 24l.725.69.002-.003-.727-.687zM12 45.867h1v-.1l-.02-.096-.98.196zm-.8.533h1v-.34l-.207-.27-.793.61zm21.34-36.19c2.575 3.346 3.793 6.337 3.793 9.79h2c0-4.014-1.448-7.423-4.207-11.01l-1.585 1.22zM36.334 20c0 4.205-1.71 8.238-6.127 12.913l1.454 1.374c4.651-4.925 6.673-9.425 6.673-14.287h-2zm-6.125 12.911c-2.55 2.685-5.005 5.544-6.826 8.498-1.819 2.95-3.049 6.068-3.049 9.258h2c0-2.678 1.037-5.427 2.752-8.209 1.712-2.78 4.057-5.52 6.573-8.17l-1.45-1.377zm-9.875 17.756c0 1.195.301 2.403.553 3.663l1.961-.393c-.281-1.406-.514-2.332-.514-3.27h-2zm.534 3.466a6.723 6.723 0 01-.003.138c-.001.026-.003.029 0 .02a.203.203 0 01.019-.048c.01-.018.017-.023.01-.017l1.414 1.415c.578-.578.56-1.226.56-1.508h-2zm.026.093a.663.663 0 01.379-.175.755.755 0 01.516.117c.212.142.279.34.279.499h-2c0 .424.2.89.612 1.165.225.15.525.245.857.2.328-.043.587-.207.771-.391l-1.414-1.415zm.966-.169c-2.574-3.346-3.792-6.338-3.792-9.79h-2c0 4.014 1.448 7.423 4.207 11.01l1.585-1.22zm-3.792-9.79c0-4.205 1.71-8.238 6.127-12.914L22.74 29.98c-4.651 4.924-6.673 9.425-6.673 14.287h2zm6.125-12.912c2.55-2.684 5.005-5.543 6.826-8.497 1.819-2.95 3.049-6.069 3.049-9.258h-2c0 2.677-1.037 5.426-2.752 8.209-1.712 2.779-4.057 5.52-6.573 8.169l1.45 1.377zM34.067 13.6c0-1.195-.301-2.403-.553-3.663l-1.961.393c.281 1.406.514 2.332.514 3.27h2zm-.534-3.467a6.73 6.73 0 01.003-.137c.001-.026.003-.03 0-.02a.202.202 0 01-.019.048c-.01.018-.017.023-.01.017l-1.414-1.415c-.578.578-.56 1.226-.56 1.507h2zm-.733.2h.059a.652.652 0 01-.24-.072c-.084-.042-.128-.086-.113-.072l.039.037.081.081 1.414-1.414a4.444 4.444 0 00-.196-.19 1.487 1.487 0 00-.33-.23c-.322-.162-.657-.14-.714-.14v2zM11.744 2.214c1.73 2.223 2.456 4.674 2.456 6.853h2c0-2.621-.873-5.504-2.877-8.08l-1.579 1.227zM14.2 9.067c0 3.118-1.426 6.087-4.535 9.455l1.47 1.356c3.29-3.565 5.065-6.996 5.065-10.811h-2zm-4.531 9.45c-1.884 2.019-3.736 4.209-5.12 6.459C3.168 27.218 2.2 29.604 2.2 32h2c0-1.87.764-3.884 2.052-5.976 1.282-2.083 3.03-4.16 4.88-6.142l-1.463-1.364zM2.2 32c0 .948.3 2.169.639 2.847l1.789-.894C4.434 33.564 4.2 32.652 4.2 32h-2zm.533 2.4v.069c0 .013 0 .006.001-.01a.737.737 0 01.071-.24c.043-.084.086-.128.073-.113a1.39 1.39 0 01-.038.039c-.02.022-.046.047-.08.081l1.414 1.415c.059-.06.13-.131.19-.197.061-.068.155-.179.23-.33.161-.322.14-.656.14-.714h-2zm.027-.174a.67.67 0 01.657-.142.54.54 0 01.213.132l.005.005.003.003h.001v.002l-.706.707-.706.708.002.002.003.003a.362.362 0 00.021.02 1.358 1.358 0 00.145.119c.083.059.214.14.386.197.176.059.413.098.683.044.277-.055.516-.195.707-.386L2.76 34.227zm.954.083C1.716 31.81 1 29.363 1 27.2h-2c0 2.637.884 5.522 3.152 8.358l1.562-1.25zM1 27.2c0-3.119 1.426-6.087 4.535-9.455l-1.47-1.357C.775 19.954-1 23.385-1 27.2h2zm4.531-9.451c1.884-2.018 3.736-4.208 5.12-6.458C12.032 9.049 13 6.663 13 4.267h-2c0 1.87-.764 3.884-2.052 5.976-1.282 2.083-3.03 4.16-4.88 6.141l1.463 1.365zM13 4.267c0-.949-.3-2.17-.639-2.848l-1.789.895c.194.388.428 1.301.428 1.953h2zm-.533-2.4v-.534h-2v.534h2zm-1 .466c.139 0 .234 0 .314.004a.88.88 0 01.123.01c.005.001-.014-.002-.043-.017-.028-.015-.04-.029-.035-.023L13.24.893c-.605-.605-1.321-.56-1.773-.56v2zm2.858 20.756c2.55-2.685 5.006-5.543 6.826-8.498 1.819-2.95 3.049-6.068 3.049-9.258h-2c0 2.678-1.037 5.427-2.751 8.209-1.713 2.78-4.058 5.52-6.574 8.17l1.45 1.377zM24.2 5.333c0-1.195-.3-2.403-.553-3.662l-1.96.392c.28 1.407.513 2.332.513 3.27h2zm-.533-3.466v-.085l.002-.053c.002-.026.003-.029.001-.02a.195.195 0 01-.02.048c-.01.018-.016.023-.01.017L22.226.36c-.577.577-.56 1.225-.56 1.507h2zm-.027-.093a.663.663 0 01-.379.176.755.755 0 01-.516-.118.592.592 0 01-.278-.499h2c0-.424-.2-.89-.612-1.165a1.245 1.245 0 00-.858-.2 1.342 1.342 0 00-.77.392l1.413 1.414zm-.966.17c2.574 3.346 3.793 6.337 3.793 9.79h2c0-4.015-1.449-7.424-4.208-11.01l-1.585 1.22zm3.793 9.79c0 4.204-1.711 8.237-6.127 12.913l1.454 1.373c4.65-4.924 6.673-9.425 6.673-14.287h-2zm-6.125 12.91c-2.55 2.685-5.006 5.544-6.827 8.498-1.818 2.95-3.048 6.069-3.048 9.258h2c0-2.677 1.036-5.426 2.751-8.209 1.713-2.779 4.057-5.52 6.574-8.169l-1.45-1.377zM10.467 42.4c0 1.195.3 2.403.552 3.663l1.962-.392c-.282-1.407-.514-2.333-.514-3.271h-2zM11 45.867v.084l-.002.053-.002.02a.204.204 0 01.02-.048c.01-.018.017-.023.01-.016l1.414 1.414c.578-.578.56-1.226.56-1.507h-2zm.026.093a.663.663 0 01.38-.176.755.755 0 01.515.117.592.592 0 01.279.499h-2c0 .425.2.89.612 1.165.226.15.525.246.858.201.327-.043.586-.208.77-.392l-1.414-1.414zm.967-.17C9.418 42.444 8.2 39.453 8.2 36h-2c0 4.014 1.448 7.423 4.207 11.01l1.586-1.22zM8.2 36c0-4.205 1.711-8.238 6.127-12.913l-1.454-1.374C8.223 26.638 6.2 31.138 6.2 36h2z" fill="#BBA56F" mask="url(#a)"/></svg>