<svg width="158" height="40" fill="none" xmlns="http://www.w3.org/2000/svg"><path d="M28.122 0c2.616 2.553 5.219 5.119 7.835 7.672a187.75 187.75 0 003.405 3.228c.485.442.637.966.623 1.6-.014 3.299.014 6.596.014 9.908 0 1.697.014 3.394-.056 5.077-.013.428-.276.939-.595 1.256-3.377 3.518-6.796 6.995-10.16 10.514-.664.704-1.44.745-2.27.745-2.187 0-4.36-.028-6.547-.028-2.713-.013-5.426 0-8.14-.055-.318 0-.691-.234-.94-.469A1286.105 1286.105 0 01.506 28.962c-.263-.262-.47-.718-.484-1.076-.028-5.188-.028-10.39-.014-15.578 0-.304.18-.676.402-.897C3.456 8.25 6.529 5.105 9.6 1.959c.665-.69 1.371-1.31 2.05-1.959h16.471zm-4.014 38.137v.056c.97 0 1.938.04 2.907-.028.388-.028.83-.22 1.135-.483.623-.552 1.149-1.2 1.716-1.794 2.644-2.718 5.288-5.436 7.918-8.168.166-.18.29-.47.305-.704a84.76 84.76 0 00.055-3.228c0-3.533 0-7.051-.028-10.583 0-.4.028-.925-.207-1.16-1.661-1.697-3.378-3.325-5.08-4.967-1.384-1.338-2.783-2.676-4.153-4.029-.858-.841-1.73-1.27-3.045-1.255-.111.027-.236 0-.346 0-2.063 0-4.139 0-6.201-.014-1.745-.014-3.489-.07-5.247-.041-.678 0-1.37-.207-1.993.441-3.211 3.353-6.478 6.664-9.69 10.004-.22.234-.345.634-.36.965-.027 1.725-.013 3.45-.013 5.16 0 2.94-.014 5.879.028 8.818 0 .33.152.745.387.98 1.19 1.213 2.422 2.386 3.64 3.573 1.952 1.89 3.89 3.78 5.842 5.657.401.386.747.87 1.44.814.844-.055 1.702-.028 2.546-.028 2.838.014 5.648.014 8.444.014z" fill="#BBA56F"/><path d="M26.198 11.839c.762-.387 1.592-.8 2.464-1.242-1.536-1.504-2.976-2.925-4.443-4.36-.928 1.159-.983 2.607-1.121 4.167-2.104-.51-4.194-.608-6.27.055-.084-.814-.098-1.546-.25-2.25-.166-.703-.484-1.365-.775-2.166-1.564 1.629-2.99 3.133-4.471 4.678.72.345 1.592.773 2.408 1.173-.636.634-1.218 1.228-1.882 1.89-.402-.814-.803-1.656-1.204-2.47-1.55 1.449-3.032 2.843-4.568 4.278 1.3 1.034 2.768 1.062 4.235 1.172-.152 1.035-.29 2.001-.47 3.201-2.52-2.387-4.831-4.774-7.17-7.16C6.1 9.464 9.463 6.167 12.813 2.897c2.242 2.152 4.65 4.47 7.087 6.816a3380.46 3380.46 0 007.073-7.12c3.503 3.49 6.88 6.83 10.299 10.238l-7.226 7.12c-.18-1.187-.332-2.139-.498-3.201 1.454-.056 2.907-.138 4.167-1.063a1317.188 1317.188 0 01-4.513-4.443c-.401.814-.803 1.642-1.135 2.305a93.526 93.526 0 01-1.869-1.711z" fill="#BBA56F"/><path d="M26.018 28.01c.692-.649 1.288-1.2 1.938-1.808.443.856.872 1.656 1.343 2.553l4.457-4.526c-1.232-.938-2.685-.966-4.166-1.049.152-1.062.29-2.042.47-3.284 2.492 2.484 4.831 4.83 7.184 7.175L27.14 37.02c-2.27-2.167-4.665-4.443-7.115-6.789-2.34 2.373-4.679 4.76-7.004 7.12L2.874 27.154c2.27-2.235 4.651-4.567 7.018-6.913.125.87.277 1.836.443 2.912-1.425.193-2.948.027-4.18 1.173 1.481 1.407 2.948 2.787 4.471 4.236.401-.8.83-1.642 1.135-2.236.637.525 1.301 1.063 1.993 1.642-.872.442-1.688.856-2.602 1.325a830.85 830.85 0 014.637 4.374c.789-1.118.886-2.608.997-4.181 2.104.566 4.125.58 6.242-.014.291 1.463.084 3.008 1.122 4.195 1.453-1.449 2.879-2.884 4.401-4.402-.775-.372-1.591-.786-2.533-1.255z" fill="#BBA56F"/><path d="M12.052 19.924l3.377-1.007c.665-.193 1.329-.387 1.993-.566.526-.138.817-.441.956-.966.415-1.504.844-3.008 1.273-4.498.055-.207.138-.414.194-.62.069-.014.138-.014.207-.028.111.276.236.538.305.814.415 1.435.844 2.87 1.218 4.305.152.58.485.883 1.052 1.034 1.357.36 2.7.76 4.056 1.146.332.096.65.207.969.303l.041.207c-.36.125-.72.276-1.093.387-1.343.386-2.7.772-4.056 1.117-.498.124-.789.4-.928.897-.47 1.683-.968 3.353-1.453 5.022-.028.083-.07.152-.18.387-.138-.345-.249-.552-.304-.773-.402-1.393-.817-2.773-1.163-4.18-.208-.815-.595-1.284-1.467-1.477-1.523-.345-3.018-.828-4.513-1.27-.11-.013-.207-.082-.484-.234zm-3.142.083c-2.534.441-4.54 1.67-6.312 3.463v-7.16c1.785 2 3.834 3.186 6.312 3.697zm11.1 10.9c.416 2.553 1.593 4.609 3.641 6.389h-7.045c-.042-.042-.083-.083-.125-.138 1.924-1.656 2.962-3.795 3.53-6.25zm17.317-14.336v6.734c-.041.041-.097.082-.138.124-1.689-1.89-3.834-2.953-6.285-3.532 2.561-.373 4.596-1.573 6.285-3.436.055.041.097.083.138.11zM23.568 2.663c-1.952 1.794-3.114 3.836-3.599 6.32-.484-2.484-1.605-4.554-3.626-6.32h7.225z" fill="#BBA56F"/><path d="M16.55 21.538c.526.235 1.08.332 1.385.677.567.634.373 1.214-.402 1.67-1.01.579-2.02 1.144-3.031 1.724-.056-.055-.111-.097-.152-.152.705-1.256 1.411-2.511 2.2-3.919zm6.977-3.298c-1.468-.096-1.772-.4-1.841-1.78l3.71-2.055c.055.041.096.083.152.124-.665 1.228-1.343 2.47-2.021 3.712zm-7.06.042c-.706-1.297-1.37-2.511-2.034-3.74.055-.04.11-.082.152-.123.47.248.955.496 1.412.759.567.303 1.135.593 1.675.952.235.152.58.496.54.662-.125.441-.347.924-.679 1.242-.221.207-.678.165-1.066.248zm5.233 5.202c.11-1.352.442-1.683 1.827-1.78.678 1.228 1.37 2.497 2.076 3.767-.042.041-.083.083-.125.11-1.273-.69-2.519-1.393-3.778-2.097zM44.014 11.53H55.19c.027.095.068.176.095.27-.654.868-1.322 1.734-2.017 2.642-1.308-1.002-2.467-2.059-4.116-2.56v7.869c1.608-.501 3.176-.989 4.866-1.517v3.426c-1.65-.514-3.203-1.015-4.88-1.53v7.95c1.581-.38 2.658-1.476 4.008-2.397.708.853 1.417 1.706 2.126 2.546-.027.068-.055.149-.082.216H44c.014-5.634.014-11.267.014-16.915zm73.396 15.223c.613-.46 1.24-.935 1.921-1.436.845 1.002 1.677 2.004 2.59 3.074-.286.04-.45.068-.613.068-5.561 0-11.122 0-16.683.014-.491 0-.804-.177-1.09-.542-1.541-2.005-2.536-4.253-2.767-6.745-.232-2.532.177-4.997 1.54-7.218.409-.677.831-1.341 1.322-1.95.204-.258.627-.488.954-.488 3.394-.013 6.801.136 10.195-.027 1.636-.068 2.017 1.043 2.562 1.977 2.236 3.806 2.386 7.76.696 11.81-.109.244-.273.474-.409.704-.123.203-.232.42-.341.623.041.068.082.095.123.136zm-7.347-14.884c-.177.108-.3.162-.409.243-3.939 2.899-4.92 7.95-3.066 12.027.627 1.368 1.485 2.573 2.685 3.52.422.34.872.556 1.322.096.668-.664 1.376-1.328 1.922-2.086 1.294-1.828 1.785-3.887 1.703-6.121-.122-3.237-1.663-5.675-4.157-7.68zm42.579 8.884l-2.398 2.1c-.886-.705-1.759-1.423-2.645-2.127l-.245.122v7.57h-5.002V11.652c.436-.04.818-.122 1.186-.122 3.448-.013 6.896.014 10.345-.027 1.145-.014 1.69.799 2.29 1.49 1.144 1.34 1.771 2.952 1.799 4.713.054 3.29.013 6.582.013 9.886 0 .244-.027.488-.054.8h-5.016v-7.517c-.082-.027-.177-.081-.273-.122zm.109-.433c.055-.109.096-.163.109-.23.028-.15.028-.312.041-.475.041-1.544-.354-2.98-.981-4.374-.491-1.097-1.213-2.005-2.208-2.682-.668-.447-1.404-.758-2.29-.61v8.357c1.799.014 3.544.014 5.329.014zm-19.626 8.071v-16.78h5.029v16.78c-.341.027-.627.082-.913.082-3.408.013-6.815-.027-10.209.027-.94.013-1.594-.325-2.208-.948-1.417-1.463-2.208-3.25-2.276-5.228-.109-3.305-.027-6.623-.027-9.94 0-.217.041-.448.082-.76h4.974c.028.163.096.34.096.502 0 2.993-.123 6 .027 8.98.123 2.518 1.213 4.712 3.244 6.31.559.434 1.322.61 2.181.975zM84.167 11.625a933.468 933.468 0 01-2.331 3.169c-1.24-.989-2.18-2.262-3.626-2.817-1.962 1.11-2.017 4.171-.122 5.54 1.131.825 2.317 1.584 3.462 2.383 1.785 1.232 3.094 2.763 3.257 5.038.082 1.15-.218 2.194-.777 3.169-.095.176-.395.352-.586.352-3.857.014-7.714.014-11.571 0-.055 0-.123-.054-.3-.136.845-1.15 1.676-2.261 2.576-3.48.34.325.586.569.845.813.763.69 1.54 1.394 2.317 2.085.477.42.872.298 1.267-.176.995-1.192 1.254-3.575-.6-4.916-.749-.542-1.512-1.07-2.275-1.598-1.663-1.151-3.38-2.262-4.13-4.266-.627-1.72-.382-3.386.6-4.916.122-.19.504-.325.763-.325 2.426-.014 4.838.027 7.264.027 1.132 0 2.263-.014 3.394-.014.123.014.26.027.573.068zm-14.57.04c-.818 1.097-1.54 2.073-2.304 3.088-1.213-1.002-2.399-1.99-3.544-2.925-2.03 1.517-2.167 4.063-.354 5.526 1.118.907 2.358 1.679 3.571 2.478 1.418.948 2.508 2.153 3.053 3.778.518 1.558.368 3.075-.518 4.483-.123.19-.422.38-.64.38-3.817.027-7.633.013-11.45.013-.081 0-.163-.04-.381-.108.872-1.206 1.704-2.343 2.453-3.373.695.61 1.309 1.165 1.963 1.693.504.42 1.036.8 1.567 1.192.341.244.6.15.886-.149 1.295-1.354 1.295-3.657-.136-4.78-1.267-.99-2.59-1.897-3.87-2.858-1.173-.894-2.29-1.842-2.809-3.305-.6-1.68-.45-3.29.505-4.794.15-.23.531-.447.818-.447 3.516-.027 7.032-.014 10.535-.014.137-.013.3.055.655.122zm29.549-.04c-.75.975-1.404 1.828-2.113 2.762-1.335-.92-2.508-2.03-4.17-2.491v7.868c1.649-.514 3.23-1.002 4.906-1.53v3.44l-4.893-1.517v8.004c1.5-.528 2.672-1.476 3.94-2.479.762.88 1.471 1.734 2.33 2.723H87.779V11.638c3.734-.013 7.442-.013 11.367-.013z" fill="#BBA56F"/></svg>