<svg xmlns="http://www.w3.org/2000/svg" width="861.38" height="891.38"><g data-name="Layer 2"><path d="M52.07 680.69h0c-8.06-8.37-16-16.81-23.89-25.26s-15.83-16.89-23.9-25.27a12.75 12.75 0 01-2.91-4.4 12.33 12.33 0 01-.64-5.25v0c.58-38.27.79-76.63 1-115h0c.21-38.35.43-76.7 1-115h0c.38-28.13.51-56.14.64-84.18q.09-21 .22-42h0a15.59 15.59 0 011.1-6.24 14.41 14.41 0 013.58-4.93h0q25.9-26.46 51.81-53.07h0Q86 173.49 111.94 147h0c12-12.26 24.12-24.32 36.29-36.41 9.21-9.14 18.43-18.3 27.61-27.58 9.67-9.68 19.14-19.49 28.59-29.26q9.45-9.78 18.91-19.48 5-5.07 10.12-10.08c6.79-6.71 13.58-13.44 20.12-20.43 2.65-2.76 5.53-2.76 9-2.76h279.95c20.39.06 40.86.12 61.17-.33 6.39 0 10.82 2.29 15 6.94 9.69 12 20.38 22.88 31 33.79 4.56 4.67 9.12 9.33 13.59 14.07C692 86.66 721 117.44 750 148.31q10.79 11.43 21.56 22.9h0q8.91 9.39 17.78 18.7c11.9 12.49 23.75 24.93 35.48 37.51h0q5.25 5.61 10.52 11.3c7.17 7.71 14.38 15.47 21.72 23.1a12.19 12.19 0 013.56 9.64h0v0c-.72 21.69-.65 43.3-.58 64.9h0c.07 21.61.14 43.2-.58 64.86h0c-.86 29.46-.93 58.85-.93 88.22v8.82c0 26.44 0 52.88-.5 79.38h0c-.15 8.51-.29 17.09-.44 25.67v0c-.14 8.59-.28 17.19-.43 25.71h0a10.94 10.94 0 01-.53 3.74 9.43 9.43 0 01-2.15 3.27q-13.11 13.46-26.14 27c-17.4 18-34.79 36-52.44 53.74-11.09 11.07-22 22.36-33 33.65h0c-10.94 11.29-21.88 22.57-33 33.63-30.8 30.2-61 61-91 91.8-1.31 1.27-2.67 2.51-4 3.77-2.76 2.53-5.55 5.1-8.07 7.91-2.36 2.44-5.22 2.47-8.42 2.47h0c-57.57.6-114.84.6-172.12.6H256.53a15.33 15.33 0 01-12.16-5.17Q229.7 869.71 214.83 854c-13.13-13.93-26.28-27.89-39.26-42l-.5.46.5-.46C135 767.71 93.52 724.05 52.07 680.69z" fill="none" stroke="#bba56f" stroke-width="1.377" data-name="Layer 1"/></g></svg>