<svg xmlns="http://www.w3.org/2000/svg" width="200" height="200"><g data-name="Layer 2"><g data-name="Layer 1" fill="#bba56f"><path d="M140.61 0c13.08 12.76 26.09 25.6 39.17 38.36q8.41 8.18 17 16.14c2.42 2.21 3.18 4.83 3.11 8-.06 16.49.07 33 .07 49.54 0 8.48.07 17-.27 25.39a10.26 10.26 0 01-3 6.27c-16.89 17.6-34 35-50.8 52.57-3.32 3.52-7.2 3.73-11.35 3.73-10.93 0-21.8-.14-32.74-.14-13.56-.07-27.13 0-40.69-.27-1.59 0-3.46-1.18-4.71-2.35q-27.04-26.07-53.86-52.43a8.94 8.94 0 01-2.43-5.38C0 113.49 0 87.48.05 61.54a7.09 7.09 0 012-4.49Q24.9 33.36 48 9.8c3.33-3.45 6.86-6.56 10.25-9.8zm-20.07 190.69v.31c4.85 0 9.69.21 14.53-.14a10.38 10.38 0 005.68-2.41c3.11-2.76 5.74-6 8.58-9q19.83-20.38 39.59-40.84a6.24 6.24 0 001.52-3.52c.21-5.38.28-10.76.28-16.14 0-17.66 0-35.26-.14-52.92 0-2 .14-4.62-1-5.79-8.3-8.49-16.88-16.63-25.4-24.84-6.96-6.7-13.95-13.4-20.8-20.15C139.09 11 134.73 8.9 128.15 9a7.15 7.15 0 01-1.73 0c-10.31 0-20.69 0-31-.07-8.72-.1-17.42-.38-26.23-.24-3.39 0-6.86-1-10 2.21-16.06 16.76-32.39 33.32-48.45 50A8 8 0 009 65.75c-.16 8.62-.1 17.25-.1 25.8 0 14.69-.06 29.39.14 44.08a7.49 7.49 0 001.94 4.9c5.95 6.07 12.11 11.94 18.2 17.87 9.76 9.45 19.45 18.9 29.21 28.29 2 1.93 3.74 4.34 7.2 4.07 4.22-.28 8.51-.14 12.73-.14q21.29.11 42.22.07z"/><path d="M131 59.19c3.81-1.93 8-4 12.32-6.21-7.68-7.52-14.88-14.62-22.22-21.8-4.63 5.8-4.91 13-5.6 20.84-10.52-2.55-21-3-31.35.27-.42-4.07-.49-7.72-1.25-11.24s-2.43-6.83-3.9-10.83c-7.82 8.14-15 15.66-22.35 23.38 3.6 1.73 8 3.87 12 5.87-3.18 3.17-6.09 6.14-9.41 9.45-2-4.07-4-8.28-6-12.35C45.52 63.81 38.11 70.78 30.43 78c6.5 5.17 13.84 5.31 21.18 5.86-.76 5.18-1.46 10-2.36 16C36.66 87.89 25.1 76 13.4 64c17.1-16.67 33.92-33.16 50.66-49.51C75.28 25.25 87.32 36.84 99.5 48.57c11.84-11.87 23.67-23.8 35.37-35.6 17.51 17.45 34.39 34.15 51.49 51.19l-36.13 35.6c-.9-5.93-1.66-10.7-2.49-16 7.27-.27 14.53-.69 20.83-5.31C161 71.06 153.76 63.88 146 56.23c-2 4.07-4 8.21-5.68 11.52-3.03-2.69-6.08-5.52-9.32-8.56z"/><path d="M130.09 140.05c3.46-3.24 6.44-6 9.69-9 2.22 4.28 4.36 8.28 6.71 12.76 7.69-7.79 14.82-15 22.29-22.62-6.16-4.7-13.43-4.83-20.83-5.25.76-5.31 1.45-10.21 2.35-16.42 12.46 12.42 24.16 24.15 35.92 35.88l-50.52 49.7c-11.35-10.83-23.33-22.22-35.58-33.94C88.43 163 76.73 175 65.1 186.75l-50.73-51c11.35-11.18 23.26-22.83 35.09-34.56.62 4.34 1.39 9.17 2.22 14.55-7.13 1-14.75.14-20.91 5.87 7.41 7 14.75 13.93 22.36 21.18 2-4 4.15-8.21 5.67-11.18 3.19 2.62 6.51 5.31 10 8.21-4.36 2.21-8.44 4.28-13 6.62 8.1 7.59 15.57 14.63 23.19 21.87 3.94-5.58 4.42-13 5-20.9a57.07 57.07 0 0031.21-.07c1.46 7.31.42 15 5.61 21 7.27-7.24 14.39-14.41 22-22-3.93-1.88-8.01-3.95-12.72-6.29z"/><path d="M60.26 99.62l16.89-5c3.32-1 6.64-1.93 10-2.82a6.14 6.14 0 004.78-4.83c2.07-7.52 4.22-15 6.36-22.49.28-1 .7-2.07 1-3.11.35-.07.7-.07 1-.14a30.56 30.56 0 011.52 4.07c2.08 7.18 4.23 14.35 6.09 21.53a6.66 6.66 0 005.23 5.17c6.79 1.8 13.5 3.8 20.28 5.73 1.66.48 3.26 1 4.85 1.52l.21 1c-1.8.62-3.6 1.38-5.47 1.93-6.72 1.93-13.5 3.87-20.28 5.59a5.84 5.84 0 00-4.64 4.49c-2.35 8.41-4.84 16.76-7.26 25.11-.14.41-.35.76-.9 1.93a35.68 35.68 0 01-1.53-3.86c-2-7-4.08-13.87-5.81-20.91-1-4.07-3-6.41-7.34-7.38-7.61-1.72-15.08-4.14-22.56-6.35a8.53 8.53 0 01-2.42-1.18zm-15.71.38c-12.67 2.21-22.7 8.35-31.56 17.32V81.55c8.93 10 19.17 15.93 31.56 18.45zm55.5 54.54c2.08 12.76 8 23 18.21 31.94H83a6 6 0 01-.62-.69c9.62-8.28 14.84-18.97 17.67-31.25zm86.59-71.68v33.66c-.21.21-.49.42-.7.62-8.44-9.45-19.17-14.76-31.42-17.66 12.81-1.86 23-7.86 31.42-17.18.28.21.49.42.7.56zm-68.8-69.54c-9.76 9-15.57 19.17-18 31.59a53.93 53.93 0 00-18.13-31.59z"/><path d="M82.75 107.69c2.63 1.18 5.4 1.66 6.92 3.38 2.84 3.18 1.87 6.07-2 8.35-5.06 2.9-10.11 5.73-15.16 8.62a6.76 6.76 0 01-.76-.75c3.53-6.29 7.06-12.56 11-19.6zm34.88-16.49c-7.33-.48-8.86-2-9.2-8.9L127 72c.27.21.48.42.76.63C124.42 78.79 121 85 117.63 91.2zm-35.29.21c-3.53-6.48-6.86-12.56-10.18-18.7a5.5 5.5 0 00.76-.62c2.36 1.25 4.78 2.49 7.06 3.8 2.84 1.52 5.68 3 8.38 4.76 1.17.76 2.9 2.48 2.7 3.31a14.12 14.12 0 01-3.39 6.21c-1.11 1.03-3.4.83-5.33 1.24zm26.16 26.01c.55-6.76 2.21-8.42 9.13-8.9 3.37 6.14 6.86 12.48 10.37 18.83a4 4 0 01-.62.56c-6.38-3.45-12.58-6.97-18.88-10.49z"/></g></g></svg>